<?xml version="1.0" encoding="utf-8"?>
<!-- Generator: Adobe Illustrator 26.5.0, SVG Export Plug-In . SVG Version: 6.00 Build 0)  -->
<svg version="1.1" id="Layer_1" xmlns="http://www.w3.org/2000/svg" xmlns:xlink="http://www.w3.org/1999/xlink" x="0px" y="0px"
	 viewBox="0 0 612 792" style="enable-background:new 0 0 612 792;" xml:space="preserve">
<style type="text/css">
	.st0{fill:#412F13;}
	.st1{fill:none;stroke:#412F13;}
	.st2{fill:none;}
</style>
<g id="Rectangle_3" transform="translate(0 3)">
	<path class="st0" d="M298.95,388.14h14l0,0v9c0,1.66-1.34,3-3,3h-8c-1.66,0-3-1.34-3-3V388.14L298.95,388.14z"/>
	<path class="st1" d="M299.45,388.64h13l0,0v8.5c0,1.38-1.12,2.5-2.5,2.5h-8c-1.38,0-2.5-1.12-2.5-2.5V388.64L299.45,388.64z"/>
</g>
<g id="Rectangle_4" transform="translate(3)">
	<path class="st2" d="M299.95,388.14h6c0.55,0,1,0.45,1,1v3l0,0h-8l0,0v-3C298.95,388.59,299.4,388.14,299.95,388.14z"/>
	<path class="st1" d="M299.95,388.64h6c0.28,0,0.5,0.22,0.5,0.5v2.5l0,0h-7l0,0v-2.5C299.45,388.87,299.68,388.64,299.95,388.64z"/>
</g>
</svg>
