<?xml version="1.0" encoding="utf-8"?>
<!-- Generator: Adobe Illustrator 26.5.0, SVG Export Plug-In . SVG Version: 6.00 Build 0)  -->
<svg version="1.1" id="Layer_1" xmlns="http://www.w3.org/2000/svg" xmlns:xlink="http://www.w3.org/1999/xlink" x="0px" y="0px"
	 viewBox="0 0 536 408" style="enable-background:new 0 0 536 408;" xml:space="preserve">
<style type="text/css">
	.st0{fill:#FFFFFF;}
	.st1{fill:#432D00;}
	.st2{fill:none;stroke:#674C14;stroke-width:9;}
	.st3{fill:#674C14;}
	.st4{fill:none;stroke:#674C14;}
</style>
<g id="Path_3271">
	<path class="st0" d="M123.5,96c0-3.04,0.59-5.98,1.77-8.76"/>
	<path class="st1" d="M126,96 M121,96"/>
</g>
<ellipse id="Ellipse_9" class="st0" cx="272.3" cy="187.88" rx="94.5" ry="88"/>
<g id="Group_14" transform="translate(-689 -2385)">
	<g id="Rectangle_17" transform="translate(732 2423)">
		<path class="st0" d="M198.8,99.88h61c11.6,0,21,9.4,21,21v59c0,11.6-9.4,21-21,21h-61c-11.6,0-21-9.4-21-21v-59
			C177.8,109.28,187.21,99.88,198.8,99.88z"/>
		<path class="st2" d="M198.8,104.38h61c9.11,0,16.5,7.39,16.5,16.5v59c0,9.11-7.39,16.5-16.5,16.5h-61c-9.11,0-16.5-7.39-16.5-16.5
			v-59C182.3,111.77,189.69,104.38,198.8,104.38z"/>
	</g>
	<g id="Ellipse_6" transform="translate(756 2445)">
		<circle class="st0" cx="206.3" cy="128.38" r="28.5"/>
		<circle class="st2" cx="206.3" cy="128.38" r="24"/>
	</g>
	<g id="Ellipse_10" transform="translate(808 2440)">
		<circle class="st3" cx="182.8" cy="104.88" r="5"/>
		<circle class="st4" cx="182.8" cy="104.88" r="4.5"/>
	</g>
</g>
</svg>
