<?xml version="1.0" encoding="utf-8"?>
<!-- Generator: Adobe Illustrator 26.5.0, SVG Export Plug-In . SVG Version: 6.00 Build 0)  -->
<svg version="1.1" id="Layer_1" xmlns="http://www.w3.org/2000/svg" xmlns:xlink="http://www.w3.org/1999/xlink" x="0px" y="0px"
	 viewBox="0 0 536 408" style="enable-background:new 0 0 536 408;" xml:space="preserve">
<style type="text/css">
	.st0{fill:#FFFFFF;}
	.st1{fill:#432D00;}
	.st2{fill:#231955;}
	.st3{font-family:'Helvetica-Bold';}
	.st4{font-size:23px;}
	.st5{fill:none;stroke:#432D00;stroke-width:5;stroke-miterlimit:10;}
	.st6{fill:none;stroke:#707070;}
	.st7{fill:#D0A768;}
	.st8{fill:#623A1D;stroke:#623A1D;stroke-miterlimit:10;}
</style>
<g id="Path_3271">
	<path class="st0" d="M388,333.5H146c-3.04,0-5.98-0.59-8.76-1.77c-2.68-1.13-5.09-2.76-7.15-4.82c-2.07-2.07-3.69-4.47-4.82-7.15
		c-1.17-2.77-1.77-5.72-1.77-8.76V96c0-3.04,0.59-5.98,1.77-8.76c1.13-2.68,2.76-5.09,4.82-7.15c2.07-2.07,4.47-3.69,7.15-4.82
		c2.77-1.17,5.72-1.77,8.76-1.77h242c3.04,0,5.98,0.59,8.76,1.77c2.68,1.13,5.09,2.76,7.15,4.82c2.07,2.07,3.69,4.47,4.82,7.15
		c1.17,2.77,1.77,5.72,1.77,8.76v215c0,3.04-0.59,5.98-1.77,8.76c-1.13,2.68-2.76,5.09-4.82,7.15c-2.07,2.07-4.47,3.69-7.15,4.82
		C393.98,332.91,391.04,333.5,388,333.5z"/>
	<path class="st1" d="M146,76c-5.34,0-10.36,2.08-14.14,5.86S126,90.66,126,96v215c0,5.34,2.08,10.36,5.86,14.14S140.66,331,146,331
		h242c5.34,0,10.36-2.08,14.14-5.86S408,316.34,408,311V96c0-5.34-2.08-10.36-5.86-14.14S393.34,76,388,76H146 M146,71h242
		c13.81,0,25,11.19,25,25v215c0,13.81-11.19,25-25,25H146c-13.81,0-25-11.19-25-25V96C121,82.19,132.19,71,146,71z"/>
</g>
<text transform="matrix(1 0 0 1 168.352 308)" class="st2 st3 st4">Available as Minis</text>
<g id="Group_33" transform="translate(-21.182 -106.883)">
	<ellipse id="Ellipse_24" class="st5" cx="288.18" cy="293.96" rx="93.95" ry="87.92"/>
</g>
<path id="Path_3255" class="st6" d="M281.33,164.41"/>
<g id="Group_34" transform="translate(-81.839 -79.263)">
	<ellipse id="Ellipse_25" class="st7" cx="349.34" cy="266.26" rx="39.5" ry="40"/>
	<path id="Path_3256" class="st8" d="M363.8,270.41c-0.98,1.07-1.8,2.26-2.45,3.55c-0.19,0.38-0.34,0.93,0.01,1.18
		c0.16,0.1,0.34,0.14,0.53,0.13c2.48,0.1,5.09-0.34,7.37,0.66c0.2,0.11,0.43,0.18,0.66,0.2c0.24,0.01,0.46-0.15,0.51-0.38
		c0-0.16-0.05-0.31-0.15-0.43c-0.88-1.31-2.22-2.24-3.76-2.62c-0.13-0.02-0.24-0.07-0.33-0.16c-0.05-0.09-0.08-0.19-0.08-0.29
		l-0.15-1.86"/>
	<path id="Path_3257" class="st8" d="M341.29,252.59c-0.61,0.27-1.12,0.7-1.49,1.25c-0.36,0.58-0.17,1.34,0.4,1.69
		c0,0,0.01,0,0.01,0.01c0.48,0.14,0.99,0.01,1.33-0.36c0.33-0.36,0.63-0.74,0.9-1.14c0.9-1.09,2.29-1.64,3.69-1.47
		c-0.98,0.44-2.1,0.45-3.09,0.02"/>
	<path id="Path_3258" class="st8" d="M346.73,271.09l-0.63,1.17c-0.16,0.25-0.26,0.54-0.28,0.84c-0.01,0.31,0.23,0.57,0.53,0.6
		c0.38-0.01,0.55-0.47,0.63-0.85"/>
	<path id="Path_3259" class="st8" d="M327.61,286.88c-0.38-0.12-0.23-0.76,0.15-0.87c0.39-0.06,0.79,0.04,1.12,0.26
		c2.25,0.95,4.71,1.31,7.14,1.04c0.2-0.01,0.45-0.01,0.56,0.17c0.04,0.08,0.06,0.17,0.06,0.26c0.09,1.22-0.04,2.44-0.4,3.61
		c-0.08,0.34-0.25,0.66-0.48,0.93c-0.41,0.36-0.96,0.52-1.5,0.46c-1.97-0.11-3.53-1.64-4.89-3.07c-0.25-0.26-0.51-0.62-0.34-0.94
		c0.2-0.37,0.75-0.26,1.14-0.09l2.46,1.04c0.88,0.26,1.64,0.81,2.17,1.56l-0.05-0.36"/>
	<path id="Path_3260" class="st8" d="M319.96,272.02c0.07,0.41,0.06,0.84-0.03,1.25c-0.08,0.42,0.07,0.85,0.41,1.12
		c0.54,0.32,1.18-0.21,1.6-0.68s1.14-0.93,1.62-0.52"/>
	<path id="Path_3261" class="st8" d="M323.74,246.87c-0.35,0.63-0.59,1.31-0.73,2.02c-0.13,0.72,0.09,1.46,0.59,1.99
		c0.5,0.39,1.1,0.63,1.73,0.69c0.12,0.04,0.24,0.03,0.36-0.01c0.11-0.07,0.19-0.18,0.22-0.31c0.09-0.65,0.01-1.31-0.22-1.93
		c-0.23-0.63-0.04-1.34,0.47-1.77c0.28-0.12,0.57-0.2,0.87-0.24c0.87-0.31,1.62-0.86,2.17-1.6c0.45-0.37,0.7-0.92,0.7-1.5
		c-0.2-0.68-0.9-1.08-1.59-0.91c-0.66,0.19-1.25,0.54-1.73,1.04c-0.75,0.58-1.39,1.28-1.89,2.09c-0.5,0.82-0.53,1.85-0.07,2.7"/>
	<path id="Path_3262" class="st8" d="M364.05,292.73l-6.47,0.13c-0.27-0.01-0.54,0.03-0.8,0.12c-0.29,0.16-0.53,0.39-0.7,0.67
		c-0.3,0.4-0.51,0.86-0.61,1.34c-0.1,0.5,0.07,1.01,0.43,1.36c0.36,0.26,0.79,0.4,1.23,0.43c1.9,0.41,3.89,0.08,5.56-0.92
		c1.13-0.38,2.12-1.07,2.86-2.01c0.46-0.72,0.59-1.61,0.37-2.43c-0.03-0.16-0.11-0.31-0.23-0.43c-0.19-0.13-0.43-0.19-0.67-0.17
		c-0.37-0.03-0.74,0.03-1.07,0.18c-0.34,0.17-0.51,0.56-0.4,0.92"/>
	<path id="Path_3263" class="st8" d="M373.96,252.09c-1.81-0.07-3.62-0.05-5.43,0.05c-0.47-0.01-0.93,0.09-1.35,0.29
		c-0.57,0.41-0.99,0.99-1.2,1.66c0.73,0.09,1.46-0.06,2.1-0.43c0.45-0.33,0.76-0.9,1.31-1.01c0.77-0.16,1.36,0.64,2.08,0.98
		c0.98,0.46,2.31,0.06,3.07,0.83c0.31,0.32,0.45,0.77,0.73,1.11c0.06,0.1,0.17,0.16,0.29,0.16c0.15-0.01,0.23-0.18,0.28-0.33
		c0.3-0.89,0.56-2.01-0.12-2.66c-0.22-0.18-0.45-0.34-0.69-0.49c-1.02-0.75-1.26-2.3-2.36-2.93c-0.21,0.64-0.5,1.25-0.88,1.81"/>
	<path id="Path_3264" class="st8" d="M347.26,240.79c0.54,0.41,0.92,0.99,1.11,1.65"/>
	<path id="Path_3265" class="st8" d="M360.12,234.05c-1.63-0.05-3.25-0.03-4.88,0.06c2.14,0.56,3.47,2.62,4.76,4.43
		c0.09,0.13,0.2,0.27,0.36,0.27c0.16-0.01,0.3-0.1,0.38-0.23c0.48-0.6,0.75-1.34,0.76-2.11"/>
	<path id="Path_3266" class="st8" d="M326.47,260.26l1.1,0.22"/>
	<path id="Path_3267" class="st8" d="M382.02,268.79c0.41,1.17-0.08,2.47-1.16,3.08"/>
	<path id="Path_3268" class="st8" d="M347.11,286.79c-0.04-1.13,0.84-2.09,1.98-2.13c0.08,0,0.16,0,0.24,0l2.24-0.26"/>
	<path id="Path_3269" class="st8" d="M333.95,269.97"/>
</g>
</svg>
