<?xml version="1.0" encoding="utf-8"?>
<!-- Generator: Adobe Illustrator 26.5.0, SVG Export Plug-In . SVG Version: 6.00 Build 0)  -->
<svg version="1.1" id="Layer_1" xmlns="http://www.w3.org/2000/svg" xmlns:xlink="http://www.w3.org/1999/xlink" x="0px" y="0px"
	 viewBox="0 0 536 408" style="enable-background:new 0 0 536 408;" xml:space="preserve">
<style type="text/css">
	.st0{fill:#FFFFFF;}
	.st1{fill:none;stroke:#432D00;stroke-width:5;}
	.st2{fill:#231955;}
	.st3{font-family:'Helvetica-Bold';}
	.st4{font-size:23px;}
	.st5{fill:#B1945B;stroke:#432D00;stroke-width:1.0005;stroke-miterlimit:10.0045;}
	.st6{fill:none;stroke:#432D00;stroke-width:4.0018;stroke-miterlimit:10.0045;}
	.st7{fill:none;stroke:#432D00;stroke-width:5;stroke-miterlimit:10;}
</style>
<g id="Rectangle_52">
	<path class="st0" d="M146,71h242c13.81,0,25,11.19,25,25v215c0,13.81-11.19,25-25,25H146c-13.81,0-25-11.19-25-25V96
		C121,82.19,132.19,71,146,71z"/>
	<path class="st1" d="M146,73.5h242c12.43,0,22.5,10.07,22.5,22.5v215c0,12.43-10.07,22.5-22.5,22.5H146
		c-12.43,0-22.5-10.07-22.5-22.5V96C123.5,83.57,133.57,73.5,146,73.5z"/>
</g>
<text transform="matrix(1 0 0 1 164.786 308)" class="st2 st3 st4">Made without Nuts</text>
<g id="Group_31" transform="translate(-364.066 -168.81)">
	<g id="Group_32" transform="matrix(0.998, 0.07, -0.07, 0.998, 355.202, 47.227)">
		<path id="Path_3236" class="st5" d="M275.41,278.57c4.3-2.51,6.84-7.84,8.19-13.19c1.35-5.35,1.78-10.97,3.24-16.28
			s4.24-10.54,8.67-12.7c3-1.46,6.41-1.37,9.49-2.59c2.9-1.15,5.42-3.44,8.4-4.29c5.3-1.52,10.7,1.82,15.1,5.57
			c6.03,5.15,11.49,11.49,14.71,19.32c0.84,1.86,1.33,3.86,1.44,5.89c-0.07,2.36-0.63,4.67-1.64,6.81
			c-2.94,7.15-7.47,13.54-13.25,18.69c-4.19,3.67-8.9,6.46-13.11,10.09c-4.21,3.63-8.01,8.38-9.28,14.27
			c-1.17,5.43-0.07,11.13-0.28,16.72c-0.2,5.14-1.81,10.63-5.59,13.35c-6.96,5.02-17.25-1.67-23.86,3.95
			c-1.24,1.06-2.26,2.5-3.64,3.28c-2.68,1.52-5.97,0.14-8.32-1.99s-4.19-4.97-6.63-6.97c-1.4-0.92-2.66-2.03-3.76-3.29
			c-1.16-1.62-1.55-3.77-2.28-5.69c-1.18-3.13-3.28-5.79-3.98-9.1c-0.35-2.21-0.38-4.45-0.08-6.67c0.47-5.53,0.99-11.24,3.32-16.1
			c4.68-9.78,15.03-13.36,23.22-19.3"/>
		<path id="Path_3237" class="st6" d="M325.16,276.91c0.12,1.06-0.78,1.89-1.43,2.7c-0.76,1.09-1.37,2.28-1.8,3.54l-0.92,1.97
			l-0.11,0.19c-0.74,1.12-1.62,2.15-2.62,3.07c-0.51,0.57-1.12,1.05-1.79,1.41c-0.68,0.36-1.5,0.32-2.14-0.1"/>
		<path id="Path_3238" class="st6" d="M318.58,266.6c-0.68,1.19-1.45,2.33-2.3,3.4c-0.32,0.43-0.7,0.82-1.12,1.16
			c-0.43,0.32-0.92,0.52-1.36,0.81c-2.11,1.36-2.89,4.17-3.49,6.72"/>
		<path id="Path_3239" class="st6" d="M290.53,259.02l-0.92,8.95"/>
		<path id="Path_3240" class="st6" d="M295.38,256.55c0.12-0.67,0.1-1.35-0.04-2.01c-0.14-0.67,0.1-1.36,0.63-1.79
			c0.31-0.13,0.64-0.19,0.97-0.18c2.93-0.18,5.26-2.53,7.72-4.23c0.52-0.35,1.31-0.63,1.65-0.09c0.26,0.41,0.2,1.21,0.67,1.18"/>
		<path id="Path_3241" class="st6" d="M298.58,308.24c-0.38-1.44,0.04-2.97,1.08-4.03c1.02-0.98,2.18-1.79,3.44-2.43
			c2.64-1.4,4.81-3.53,6.26-6.14"/>
		<path id="Path_3242" class="st6" d="M283.31,288.58c-0.11-0.77,0.28-1.52,0.97-1.88c0.66-0.3,1.35-0.54,2.06-0.7
			c2.91-0.97,4.64-4.07,6.1-6.92"/>
		<path id="Path_3243" class="st6" d="M307.97,237.76c1.47-1.4,3.33-2.9,5.21-2.29c0.68,0.31,1.33,0.67,1.96,1.07
			c0.85,0.42,1.8,0.56,2.63,1.01c1.48,0.79,2.4,2.39,3.23,3.92"/>
		<path id="Path_3244" class="st6" d="M325.21,255.86c0.17,1.64-0.16,3.3-0.96,4.74"/>
		<path id="Path_3245" class="st6" d="M330.91,253.21c2.46,0.82,4.1,3.14,4.05,5.74c-0.02,0.93-0.25,1.85-0.32,2.78
			c-0.1,1.31-0.15,4.2,0.38,5.38"/>
		<path id="Path_3246" class="st6" d="M302.38,266.51c-0.1,1.97-0.88,3.84-2.21,5.3"/>
		<path id="Path_3247" class="st6" d="M257.2,303.91c0.3,3.39-1.53,6.88-0.51,10.1c0.48,1.05,0.88,2.13,1.2,3.24
			c0.06,0.97,0.06,1.94,0,2.92c-0.06,0.97,0.43,1.9,1.26,2.4"/>
		<path id="Path_3248" class="st6" d="M263.44,297.17c1.72-3.22,7.19-2.2,8.65-5.56"/>
		<path id="Path_3249" class="st6" d="M267.67,306.38c1.79-1.42,3.13-3.32,3.86-5.48"/>
		<path id="Path_3250" class="st6" d="M266.14,331.19c2.1,0.82,4.31,1.36,6.55,1.61c0.86,0.05,1.71,0.19,2.54,0.43
			c1.14,0.55,2.24,1.18,3.29,1.89c1.07,0.71,2.46,0.73,3.55,0.06"/>
		<path id="Path_3251" class="st6" d="M288.54,316.28l-3.39,7.33c-0.31,0.75-0.71,1.46-1.21,2.1c-1.16,1.36-2.97,1.8-4.66,2.17"/>
		<path id="Path_3252" class="st6" d="M291.66,303.35c-0.49,1.56-1.18,3.05-2.06,4.44"/>
		<path id="Path_3253" class="st6" d="M305.93,309.99c-0.49,2.52,0.04,5.12,0.09,7.7c0.05,2.58-0.55,5.45-2.57,6.86
			c-1.64,1.14-3.76,1.01-5.65,1.51c-1.58,0.42-3.01,1.27-4.13,2.46"/>
	</g>
	<g id="Group_30" transform="translate(342.884 61.927)">
		<ellipse id="Ellipse_24" class="st7" cx="288.18" cy="293.96" rx="93.95" ry="87.92"/>
		<path id="Path_3254" class="st1" d="M225.96,228.23L350.4,359.7"/>
	</g>
</g>
</svg>
