<?xml version="1.0" encoding="utf-8"?>
<!-- Generator: Adobe Illustrator 26.5.0, SVG Export Plug-In . SVG Version: 6.00 Build 0)  -->
<svg version="1.1" id="Layer_1" xmlns="http://www.w3.org/2000/svg" xmlns:xlink="http://www.w3.org/1999/xlink" x="0px" y="0px"
	 viewBox="0 0 536 408" style="enable-background:new 0 0 536 408;" xml:space="preserve">
<style type="text/css">
	.st0{fill:#FFFFFF;}
	.st1{fill:#674C14;}
</style>
<ellipse id="Ellipse_5" class="st0" cx="272.3" cy="192.32" rx="94.5" ry="88"/>
<g id="Group_13" transform="translate(-919.948 -2399.177)">
	<g id="Path_3220" transform="translate(962 2446.283)">
		<path class="st1" d="M267.24,185.61h-71.22c-4.73,0-9.18-1.9-12.52-5.34c-3.35-3.45-5.19-8.03-5.19-12.91v-44.3
			c0-4.88,1.84-9.46,5.19-12.91c3.35-3.44,7.79-5.34,12.52-5.34h21.41h49.81c4.73,0,9.18,1.9,12.52,5.34
			c3.35,3.45,5.19,8.03,5.19,12.91v44.3c0,4.88-1.84,9.46-5.19,12.91C276.42,183.71,271.97,185.61,267.24,185.61z"/>
		<path class="st1" d="M196.02,105.32c-4.59,0-8.91,1.84-12.17,5.19c-3.26,3.35-5.05,7.81-5.05,12.56v44.3
			c0,4.74,1.79,9.2,5.05,12.56c3.25,3.34,7.57,5.19,12.17,5.19h71.22c4.59,0,8.91-1.84,12.17-5.19c3.26-3.35,5.05-7.81,5.05-12.56
			v-44.3c0-4.74-1.79-9.2-5.05-12.56c-3.25-3.34-7.57-5.19-12.17-5.19H196.02 M196.02,104.32h71.22c10.06,0,18.22,8.39,18.22,18.74
			v44.3c0,10.35-8.16,18.74-18.22,18.74h-71.22c-10.06,0-18.22-8.39-18.22-18.74v-44.3C177.8,112.71,185.96,104.32,196.02,104.32z"
			/>
	</g>
	<g id="Polygon_1" transform="translate(1037.421 2466.886) rotate(90)">
		<path class="st0" d="M142.45-144.3h-37.27l18.64-32.49L142.45-144.3z"/>
		<path class="st1" d="M123.82-175.79l-17.77,30.99h35.55L123.82-175.79 M123.82-177.8l19.5,34h-39L123.82-177.8z"/>
	</g>
</g>
</svg>
